<?xml version="1.0" standalone="no"?><!DOCTYPE svg PUBLIC "-//W3C//DTD SVG 1.1//EN" "http://www.w3.org/Graphics/SVG/1.1/DTD/svg11.dtd"><svg t="1678668067763" class="icon" viewBox="0 0 1024 1024" version="1.1" xmlns="http://www.w3.org/2000/svg" p-id="2835" width="128" height="128" xmlns:xlink="http://www.w3.org/1999/xlink"><path d="M512 512m-512 0a512 512 0 1 0 1024 0 512 512 0 1 0-1024 0Z" fill="#84B834" p-id="2836"></path><path d="M346.701576 745.828848c49.338182-49.245091 99.064242-98.055758 147.905939-147.642181 11.186424-11.527758 23.086545-24.638061 28.004849-39.268849 3.646061-10.705455 0.372364-28.765091-7.168-36.817454-7.416242-8.052364-24.762182-11.869091-36.429576-9.898667-12.288 2.07903-24.467394 11.682909-34.195394 20.635151-25.150061 23.117576-48.965818 47.631515-73.262546 71.61794-5.864727 5.740606-11.636364 11.605333-17.578666 17.128727-7.462788 7.028364-16.818424 13.001697-24.358788 2.947879-2.932364-3.925333-0.155152-17.345939 4.313212-20.44897 39.067152-27.663515 43.008-66.901333 38.182788-109.11806-2.327273-20.635152 9.060848-43.318303-9.060849-61.595152-15.018667 12.986182-30.72 25.305212-44.869818 39.222303-21.410909 21.038545-41.053091 43.907879-62.727757 64.698182-18.152727 17.283879-25.755152 37.127758-25.444849 61.92097 0.589576 47.631515-0.232727 95.294061-1.08606 142.987636-0.186182 11.465697 4.235636 29.602909-11.71394 30.502788-20.867879 1.024-14.599758-19.037091-14.708363-31.061333-0.387879-53.061818 0.915394-106.263273 0.527515-159.325091-0.201697-23.396848 8.067879-41.425455 24.60703-58.057697 40.432485-40.665212 79.049697-83.161212 119.668364-123.655758 18.881939-18.804364 27.849697-39.377455 25.724121-65.753212-1.241212-14.848-0.915394-3.599515 0.155151-18.540606 3.04097-42.092606 25.724121-66.249697 67.335758-67.04097a5944.630303 5944.630303 0 0 1 222.021818 0.031031c41.394424 0.791273 65.629091 25.708606 65.892849 67.801212 0.946424 126.681212 1.024 227.002182 0.232727 353.621333-0.232727 42.077091-26.825697 70.578424-68.933818 70.950788-79.344485 0.775758-158.813091-0.930909-238.157576-3.708121-18.649212-0.682667-31.340606 4.654545-43.597576 16.756363-13.467152 13.34303-26.732606 28.454788-55.544242 16.958061 9.774545-10.457212 16.818424-18.354424 24.265697-25.848243z m222.285576-278.59006h0.124121c0 13.249939-0.062061 26.453333 0 39.703273 0 40.820364-0.124121 81.609697 0.186182 122.476606 0.124121 11.403636 2.048 22.931394 16.352969 24.917333 14.258424 2.01697 23.893333-6.485333 28.578909-18.183758 3.55297-8.812606 3.677091-19.393939 3.723637-29.090909 0.248242-93.789091 0.248242-187.609212 0.06206-281.382788-0.046545-8.719515-0.170667-17.873455-2.653091-26.112-4.111515-13.203394-14.801455-19.130182-28.377212-18.059636-14.320485 1.101576-17.43903 11.527758-17.687272 23.567515-0.124121 5.523394-0.248242 11.015758-0.248243 16.554667-0.062061 48.500364-0.062061 97.047273-0.06206 145.609697z" fill="#FFFFFF" p-id="2837"></path></svg>