<?xml version="1.0" standalone="no"?><!DOCTYPE svg PUBLIC "-//W3C//DTD SVG 1.1//EN" "http://www.w3.org/Graphics/SVG/1.1/DTD/svg11.dtd"><svg t="1676342043288" class="icon" viewBox="0 0 1024 1024" version="1.1" xmlns="http://www.w3.org/2000/svg" p-id="9951" xmlns:xlink="http://www.w3.org/1999/xlink" width="200" height="200"><path d="M512.512 47.616c-254.464 0-460.8 206.336-460.8 460.8s206.336 460.8 460.8 460.8 460.8-206.336 460.8-460.8-206.336-460.8-460.8-460.8z m144.896 445.952v46.592h-114.176v64.512h114.176v47.616h-114.176v93.696H484.352v-93.696H365.568v-47.616h118.272v-64.512H365.568v-46.592h100.864l-122.88-211.456H409.6c57.856 104.96 92.672 172.032 104.96 200.192h1.024c4.096-11.776 15.872-34.816 34.304-70.144l70.656-130.048h62.464l-124.416 211.968h98.816z" fill="#FE9C01" p-id="9952"></path></svg>